<mxfile host="app.diagrams.net" modified="2024-03-15T10:20:58.090Z" agent="Mozilla/5.0 (Windows NT 10.0; Win64; x64) AppleWebKit/537.36 (KHTML, like Gecko) Chrome/121.0.0.0 Safari/537.36 OPR/107.0.0.0" version="24.0.2" etag="C5W6wXoQz8olFTXLQZMC" type="github">
  <diagram name="PÃ¡gina-1" id="gj55xrz-8E6-fVOdeObl">
    <mxGraphModel>
      <root>
        <mxCell id="0" />
        <mxCell id="1" parent="0" />
      </root>
    </mxGraphModel>
  </diagram>
</mxfile>
